<svg width="100px" height="100px" viewBox="0 0 24.00 24.00" fill="none" xmlns="http://www.w3.org/2000/svg" stroke="#000000"><g id="SVGRepo_bgCarrier" stroke-width="0" transform="translate(4.92,4.92), scale(0.59)"></g><g id="SVGRepo_tracerCarrier" stroke-linecap="round" stroke-linejoin="round" stroke="#ff0000" stroke-width="0.24000000000000005"> <path d="M5 21C5 17.134 8.13401 14 12 14C15.866 14 19 17.134 19 21M16 7C16 9.20914 14.2091 11 12 11C9.79086 11 8 9.20914 8 7C8 4.79086 9.79086 3 12 3C14.2091 3 16 4.79086 16 7Z" stroke="#000000" stroke-width="0.8399999999999999" stroke-linecap="round" stroke-linejoin="round"></path> </g><g id="SVGRepo_iconCarrier"> <path d="M5 21C5 17.134 8.13401 14 12 14C15.866 14 19 17.134 19 21M16 7C16 9.20914 14.2091 11 12 11C9.79086 11 8 9.20914 8 7C8 4.79086 9.79086 3 12 3C14.2091 3 16 4.79086 16 7Z" stroke="#000000" stroke-width="1.2" stroke-linecap="round" stroke-linejoin="round"></path> </g></svg>